<svg viewBox="0 0 88 28">
  <defs>
    <linearGradient id="a" x1="50%" x2="50%" y1="100%" y2="0%">
      <stop offset="0%" stop-color="#7140CC"/>
      <stop offset="100%" stop-color="#8D61DF"/>
    </linearGradient>
  </defs>
  <g fill="url(#a)" fill-rule="evenodd" transform="translate(-130 -26)">
    <path d="M146.64 26.72l-3.9.02a1 1 0 0 0-1 1v.66a2.92 2.92 0 0 1-2.9 2.93h-.01A8.83 8.83 0 0 0 130 40.2a8.86 8.86 0 0 0 8.92 8.77h.42a8.9 8.9 0 0 0 8.4-9v-1.34c0-.6-.5-1.1-1.11-1.09l-3.88.02a.95.95 0 0 0-.95.95v1.63c.01 1.6-1.3 2.92-2.91 2.93l-.3-.01a2.95 2.95 0 0 1-2.62-2.49c-.12-.78.1-1.55.59-2.16a3.1 3.1 0 0 1 2.35-1.18c3.44-.02 5.12-1 6.47-2.36 2.77-2.78 2.31-4.67 2.3-7.17a1.02 1.02 0 0 0-1.03-.98M186.72 31.75a8.9 8.9 0 0 0-8.44 8.96v1.35c0 .6.5 1.1 1.1 1.1h3.88c.52 0 .95-.43.95-.95v-1.63a2.93 2.93 0 0 1 2.93-2.92l.3.01a2.95 2.95 0 0 1 2.6 2.5c.11.79-.1 1.56-.6 2.17a3.09 3.09 0 0 1-2.35 1.17c-3.43 0-5.11.97-6.48 2.33-2.77 2.77-2.33 4.67-2.33 7.17.02.55.47.99 1.03.99h3.9a1 1 0 0 0 1-1v-.66c0-1.6 1.3-2.92 2.91-2.92h.02a8.86 8.86 0 0 0 8.86-8.84 8.86 8.86 0 0 0-8.86-8.84l-.42.01M216.92 31.75c-1.7.12-4.33 1.15-5.05 1.5-.72.36-.7.42-1.03.42-.02 0-.18 0-.3-.04 0 0-.47-.2-.75-.2-.94 0-1.7.74-1.71 1.64v1.23l-.02 5.63v5.98c0 .59.5 1.06 1.12 1.06h3.96a1 1 0 0 0 1.02-.97v-7.88-.07-.02c0-2.1 1.9-2.27 3.02-2.57h.02c.47-.13.8-.54.8-1.01v-2.01c0-.55-.03-1.12-.03-1.72a1.03 1.03 0 0 0-.96-.97.62.62 0 0 0-.09 0M158.02 31.75c-1.7.12-4.33 1.15-5.05 1.5-.72.36-.71.42-1.03.42-.02 0-.18 0-.3-.04-.01 0-.48-.2-.75-.2-.94 0-1.71.74-1.71 1.64l-.01 1.23v11.61c0 .59.5 1.06 1.1 1.06h3.97a1 1 0 0 0 1.01-.97v-7.88l.01-.07v-.02c0-2.1 1.9-2.27 3.02-2.57h.01c.48-.13.8-.54.8-1.01v-2.01l-.02-1.72a1.03 1.03 0 0 0-.97-.97.66.66 0 0 0-.09 0M198.41 26c-.55 0-1 .44-1 .97v13.2c0 3.43.99 5.13 2.38 6.47a7.51 7.51 0 0 0 5.7 2.33c.92 0 1.16-.69 1.16-.96v-3.95c0-.54-.14-.78-1.05-1-1.4-.35-2.16-1.5-2.16-2.91V26.97a.98.98 0 0 0-1-.97h-4.03zM169.25 32.23V36.07c0 .68.1 1.17 1.15 2.18.57.56 1.03 1.25 1.03 2.1a2.66 2.66 0 0 1-2.63 2.67h-.25a2.66 2.66 0 0 1-2.63-2.68c0-.84.46-1.53 1.03-2.09 1.04-1.01 1.14-1.5 1.15-2.18V32.23a.52.52 0 0 0-.35-.49 8.73 8.73 0 0 0-7.94 8.6 8.76 8.76 0 0 0 8.87 8.63c4.9 0 8.87-3.86 8.87-8.63a8.73 8.73 0 0 0-7.95-8.6.52.52 0 0 0-.35.5"/>
  </g>
</svg>