<?xml version="1.0" encoding="UTF-8"?>
<svg width="88px" height="28px" viewBox="0 0 88 28" version="1.1" xmlns="http://www.w3.org/2000/svg" xmlns:xlink="http://www.w3.org/1999/xlink">
    <!-- Generator: Sketch 47 (45396) - http://www.bohemiancoding.com/sketch -->
    <title>logo</title>
    <desc>Created with Sketch.</desc>
    <defs>
        <linearGradient x1="50%" y1="100%" x2="50%" y2="3.061617e-15%" id="linearGradient-1">
            <stop stop-color="#7140CC" offset="0%"></stop>
            <stop stop-color="#8D61DF" offset="100%"></stop>
        </linearGradient>
    </defs>
    <g id="Symbols" stroke="none" stroke-width="1" fill="none" fill-rule="evenodd">
        <g id="MENU" transform="translate(-130.000000, -26.000000)" fill="url(#linearGradient-1)">
            <g id="Group">
                <g transform="translate(130.000000, 26.000000)">
                    <path d="M16.6442519,0.718021774 L12.7385448,0.737746896 C12.1869357,0.740523024 11.7403005,1.18923302 11.743092,1.74665035 L11.743092,1.74665035 L11.7464711,2.3953877 C11.7546986,4.00495764 10.457914,5.32120772 8.84833775,5.32931694 L8.84833775,5.32931694 L8.82607945,5.32938999 C6.56697228,5.34093284 4.41871584,6.19824509 2.7768908,7.74374492 L2.7768908,7.74374492 C0.999752939,9.41680053 -0.0123018046,11.7688387 0.000112890304,14.196782 L0.000112890304,14.196782 C0.0250157398,19.0615815 4.02489821,22.9990811 8.91643492,22.9742421 L8.91643492,22.9742421 C9.05799183,22.9735846 9.20182598,22.9694935 9.34375019,22.9621148 L9.34375019,22.9621148 C14.0774954,22.7159161 17.7663494,18.7702342 17.7418138,13.9793673 L17.7418138,13.9793673 L17.7349086,12.6299498 C17.7318233,12.0267264 17.2358232,11.5385661 16.6293396,11.5416345 L16.6293396,11.5416345 L12.7461846,11.5612866 C12.2208006,11.5639166 11.7956157,11.9911481 11.7982603,12.5136447 L11.7982603,12.5136447 L11.8065612,14.1370222 C11.8148622,15.7466652 10.5047813,17.0629153 8.88624297,17.0710976 L8.88624297,17.0710976 C8.78545622,17.0715359 8.68283297,17.0669334 8.581532,17.0571439 L8.581532,17.0571439 C7.25881604,16.9309031 6.15912384,15.8852525 5.96665934,14.5706827 L5.96665934,14.5706827 C5.85235599,13.7897139 6.06223045,13.0218953 6.55764289,12.4088824 L6.55764289,12.4088824 C7.10785629,11.7280004 7.96241337,11.2354568 8.90879511,11.2306351 L8.90879511,11.2306351 C12.3460495,11.2131747 14.0258532,10.2316672 15.381626,8.86961104 L15.381626,8.86961104 C18.1478257,6.09048748 17.6914204,4.19651049 17.678565,1.70369342 L17.678565,1.70369342 C17.6576289,1.15000194 17.2062189,0.718021774 16.6498349,0.717948718 L16.6498349,0.717948718 C16.6479249,0.717948718 16.6460884,0.717948718 16.6442519,0.718021774" id="Fill-1"></path>
                    <path d="M56.7153305,5.75361624 C51.9875441,5.97624841 48.2840772,9.91014853 48.2840772,14.7095477 L48.2840772,14.7095477 L48.2840772,16.0614416 C48.2840772,16.6657394 48.7767628,17.1572573 49.3824059,17.1572573 L49.3824059,17.1572573 L53.2597834,17.1572573 C53.7843025,17.1572573 54.2110472,16.7314605 54.2110472,16.2081066 L54.2110472,16.2081066 L54.2110472,14.5817647 C54.2110472,12.969255 55.5259023,11.6573207 57.1419286,11.6573207 L57.1419286,11.6573207 C57.2427102,11.6573207 57.3450321,11.6625901 57.4461071,11.6728361 L57.4461071,11.6728361 C58.7662433,11.8060349 59.8589975,12.8591831 60.0443505,14.1769723 L60.0443505,14.1769723 C60.1545208,14.9599174 59.9410017,15.7279325 59.4431817,16.339622 L59.4431817,16.339622 C58.8904233,17.0188624 58.0345865,17.5079652 57.0896307,17.5079652 L57.0896307,17.5079652 C53.657482,17.5079652 51.9751481,18.4828043 50.6145233,19.8404067 L50.6145233,19.8404067 C47.8384084,22.6103548 48.284444,24.5099737 48.284444,27.0073035 L48.284444,27.0073035 C48.3025612,27.5639571 48.7540246,28 49.3121375,28 L49.3121375,28 L53.2119598,28 C53.7628845,28 54.2110472,27.5528328 54.2110472,26.9943496 L54.2110472,26.9943496 L54.2110472,26.3444569 C54.2110472,24.7319472 55.5126261,23.4200128 57.1197772,23.4200128 L57.1197772,23.4200128 L57.1420019,23.4200128 C59.3977053,23.4200128 61.5471259,22.5720785 63.1943988,21.0321694 L63.1943988,21.0321694 C64.9774409,19.3651361 66,17.0141053 66,14.5817647 L66,14.5817647 C66,9.70830122 62.0262418,5.74358974 57.1420019,5.74358974 L57.1420019,5.74358974 C57.000585,5.74358974 56.8571142,5.7469563 56.7153305,5.75361624" id="Fill-4"></path>
                    <path d="M86.9203991,5.74539799 C85.2170137,5.86727372 82.5929365,6.90433855 81.8731271,7.25853764 L81.8731271,7.25853764 C81.1533177,7.61273672 81.1613197,7.67284279 80.8388964,7.67284279 L80.8388964,7.67284279 C80.8249306,7.67284279 80.66119,7.67732724 80.5357989,7.6282153 L80.5357989,7.6282153 C80.5305145,7.62604541 80.067451,7.43285248 79.7948519,7.43285248 L79.7948519,7.43285248 C78.8489461,7.43285248 78.0819546,8.16627676 78.0804448,9.0725693 L78.0804448,9.0725693 L78.0759153,9.07546249 C78.0751604,9.08124887 78.0744055,9.57670808 78.0728957,10.3000062 L78.0728957,10.3000062 C78.0705554,12.2681003 78.0676113,15.9193092 78.0645161,15.9322562 L78.0645161,15.9322562 L78.0645161,21.905252 C78.0645161,22.4956803 78.564193,22.974359 79.1804283,22.974359 L79.1804283,22.974359 L83.1434945,22.974359 C83.7026584,22.974359 84.1559836,22.5400908 84.1559836,22.0042715 L84.1559836,22.0042715 L84.1559836,14.1191649 C84.1559836,14.09573 84.1594562,14.0726568 84.1642877,14.0498006 L84.1642877,14.0498006 C84.1656465,14.0436525 84.1664769,14.0375045 84.1664769,14.0315011 L84.1664769,14.0315011 C84.1664769,11.9306818 86.0583641,11.7649019 87.1846941,11.4619123 L87.1846941,11.4619123 C87.1890726,11.4606827 87.1933756,11.4595254 87.1976786,11.4583681 L87.1976786,11.4583681 C87.6714619,11.3312846 88,10.9193664 88,10.4479207 L88,10.4479207 L88,8.44040675 C88,7.88853029 87.9728231,7.32291117 87.9728231,6.72185044 L87.9728231,6.72185044 C87.9559131,6.20071415 87.5376159,5.78727695 87.0055533,5.74510867 L87.0055533,5.74510867 C86.9926443,5.74409605 86.9797352,5.74358974 86.9668262,5.74358974 L86.9668262,5.74358974 C86.9513505,5.74358974 86.9358748,5.74424071 86.9203991,5.74539799" id="Fill-7"></path>
                    <path d="M28.0172324,5.74532566 C26.3137456,5.86720139 23.689704,6.90426622 22.9698837,7.25846531 L22.9698837,7.25846531 C22.2500633,7.61266439 22.2580655,7.67284279 21.9355618,7.67284279 L21.9355618,7.67284279 C21.9216712,7.67284279 21.7579281,7.67739957 21.6324597,7.62814297 L21.6324597,7.62814297 C21.6271752,7.62597308 21.1641801,7.43278015 20.8915014,7.43278015 L20.8915014,7.43278015 C19.9455812,7.43278015 19.1785781,8.16627676 19.1770682,9.07249697 L19.1770682,9.07249697 L19.1725387,9.07539016 C19.1718593,9.08117654 19.1710288,9.57670808 19.169519,10.3000062 L19.169519,10.3000062 C19.1673297,12.268028 19.1642345,15.9193092 19.1612903,15.9322562 L19.1612903,15.9322562 L19.1612903,21.9051797 C19.1612903,22.495608 19.6608238,22.974359 20.2770685,22.974359 L20.2770685,22.974359 L24.2401949,22.974359 C24.7994428,22.974359 25.2526994,22.5400185 25.2526994,22.0041992 L25.2526994,22.0041992 L25.2526994,14.1190925 C25.2526994,14.0958023 25.2562476,14.0726568 25.2610791,14.0497283 L25.2610791,14.0497283 C25.2623624,14.0435802 25.2632683,14.0374322 25.2632683,14.0315011 L25.2632683,14.0315011 C25.2632683,11.9306818 27.1551843,11.7649019 28.2814559,11.4618399 L28.2814559,11.4618399 C28.2858345,11.4606827 28.2901375,11.4594531 28.2945161,11.4582958 L28.2945161,11.4582958 C28.7683066,11.3312846 29.0967742,10.919294 29.0967742,10.4479207 L29.0967742,10.4479207 L29.0967742,8.44033442 C29.0967742,7.88845796 29.0695969,7.32283884 29.0695969,6.72177811 L29.0695969,6.72177811 C29.0527621,6.20071415 28.634383,5.78720462 28.1023123,5.74503634 L28.1023123,5.74503634 C28.0894031,5.74402372 28.0764939,5.74358974 28.0635847,5.74358974 L28.0635847,5.74358974 C28.0481843,5.74358974 28.0327083,5.74424071 28.0172324,5.74532566" id="Fill-10"></path>
                    <path d="M68.4101914,0 C67.8629963,0 67.4193548,0.435880523 67.4193548,0.973593395 L67.4193548,0.973593395 L67.4193548,14.1790748 C67.4193548,17.6035994 68.3960366,19.2989506 69.7929672,20.6407071 L69.7929672,20.6407071 C71.3147581,22.1023783 72.9070251,22.974359 75.4958651,22.974359 L75.4958651,22.974359 C76.4084032,22.974359 76.645459,22.2848859 76.645161,22.0137234 L76.645161,22.0137234 L76.645161,18.060637 C76.645161,17.5227777 76.5125528,17.2765059 75.6017281,17.0549785 L75.6017281,17.0549785 C74.2007001,16.7144148 73.4380539,15.5635848 73.4380539,14.1478882 L73.4380539,14.1478882 L73.4380539,0.973593395 C73.4380539,0.435880523 72.9943379,0 72.4471428,0 L72.4471428,0 L68.4101914,0 Z" id="Fill-12"></path>
                    <path d="M39.2452355,6.23153945 L39.2452355,9.85248773 C39.2452355,9.92766813 39.2452355,9.99995697 39.2460521,10.0708 L39.2460521,10.0708 C39.2556283,10.7510381 39.3544338,11.237542 40.395195,12.250381 L40.395195,12.250381 C40.9652382,12.8054871 41.426974,13.4972913 41.426974,14.3437937 L41.426974,14.3437937 C41.426974,15.8163175 40.3001012,16.9657101 38.7968619,17.0220954 L38.7968619,17.0220954 C38.7753341,17.0236135 38.7531381,17.0242641 38.7316102,17.0242641 L38.7316102,17.0242641 C38.7144621,17.024987 38.6967202,17.024987 38.6796464,17.024987 L38.6796464,17.024987 C38.6573019,17.024987 38.6350317,17.024987 38.6128357,17.0242641 L38.6128357,17.0242641 C38.5912336,17.0242641 38.5689634,17.0236135 38.5474356,17.0220954 L38.5474356,17.0220954 C37.0441962,16.9657101 35.9173235,15.8163175 35.9173235,14.3437937 L35.9173235,14.3437937 C35.9173235,13.4972913 36.3791335,12.8054871 36.9492509,12.250381 L36.9492509,12.250381 C37.9885275,11.2389878 38.0886692,10.751761 38.0983938,10.0736916 L38.0983938,10.0736916 C38.099062,10.0108003 38.099062,9.94646323 38.099062,9.8792346 L38.099062,9.8792346 L38.099062,6.23153945 C38.099062,6.00527536 37.9506681,5.81522799 37.7471926,5.74438492 L37.7471926,5.74438492 C33.2849845,6.19684081 29.8064516,9.87055994 29.8064516,14.3358419 L29.8064516,14.3358419 C29.8064516,19.1069057 33.7778985,22.974359 38.6774194,22.974359 L38.6774194,22.974359 C43.576866,22.974359 47.5483871,19.1069057 47.5483871,14.3358419 L47.5483871,14.3358419 C47.5483871,9.86766838 44.0652517,6.19250347 39.5993319,5.74358974 L39.5993319,5.74358974 C39.3951883,5.81370992 39.2452355,6.00462476 39.2452355,6.23153945" id="Fill-14"></path>
                </g>
            </g>
        </g>
    </g>
</svg>